<?xml version="1.0" encoding="utf-8" ?><svg xmlns="http://www.w3.org/2000/svg" xmlns:xlink="http://www.w3.org/1999/xlink" width="1024" height="1024" viewBox="0 0 1024 1024"><circle cx="512" cy="512" r="512" fill="#0A050F"/><defs><linearGradient id="gradient_0" gradientUnits="userSpaceOnUse" x1="271.65958" y1="475.38892" x2="530.51276" y2="570.79462"><stop offset="0" stop-color="#0C0A1E"/><stop offset="1" stop-color="#633FB6"/></linearGradient></defs><path fill="url(#gradient_0)" d="M340.665 386.049C348.083 385.786 355.452 386.004 362.871 385.907C367.373 385.848 372.52 384.632 376.895 384.593C398.616 384.613 419.523 392.863 435.407 407.679C448.47 419.783 459.059 440.964 467.805 456.671L495.861 507.196L517.162 545.28C519.702 549.791 527.494 563.205 529.246 567.463C535.051 576.699 541.157 588.665 546.438 598.351L574.37 648.702C565.772 667.373 554.291 681.216 534.504 688.91C521.944 693.794 499.802 694.609 487.457 688.818C486.477 688.537 485.508 688.221 484.551 687.87C458.118 678.105 446.509 654.422 433.769 631.518C426.573 618.746 419.472 605.921 412.467 593.042L361.499 501.328L316.626 420.885C310.627 410.068 302.263 397.044 297.303 386.066C310.941 385.757 327.076 385.786 340.665 386.049Z"/><path fill="#7C49D8" d="M340.665 386.049C348.083 385.786 355.452 386.004 362.871 385.907C367.373 385.848 372.52 384.632 376.895 384.593C398.616 384.613 419.523 392.863 435.407 407.679C448.47 419.783 459.059 440.964 467.805 456.671L495.861 507.196L517.162 545.28C519.702 549.791 527.494 563.205 529.246 567.463L528.927 568.264C535.453 581.045 543.394 593.905 550.087 606.665C550.156 606.775 550.226 606.886 550.296 606.997C547.109 612.339 546.214 616.679 542.757 621.255C540.646 616.818 519.579 578.926 517.261 577.27L516.058 575.838L455.428 466.853L440.608 440.61C435.769 432.055 430.561 422.289 424.128 414.888C410.503 399.214 388.931 390.369 368.546 388.686C359.918 387.973 350.027 388.53 341.176 388.013C337.326 386.797 309.969 387.917 303.076 387.202C313.125 384.513 330.07 388.259 340.665 386.049Z"/><path fill="#7C49D8" d="M516.058 575.838L517.261 577.27L547.393 631.046C551.184 637.941 555.561 644.933 558.933 651.955C543.144 678.212 517.901 692.712 487.513 681.248C488.538 680.878 490.411 680.391 490.863 679.317C492.172 676.213 491.025 670.87 491.798 667.347C492.424 664.489 493.671 661.722 494.475 658.901C497.485 648.346 500.699 637.727 503.401 627.098C504.464 622.92 504.046 616.781 506.127 613.263C507.064 611.679 514.263 587.036 515.035 583.617C515.608 581.079 515.814 578.426 516.058 575.838Z"/><defs><linearGradient id="gradient_1" gradientUnits="userSpaceOnUse" x1="544.94385" y1="510.74973" x2="332.70078" y2="555.07025"><stop offset="0" stop-color="#EF7EBE"/><stop offset="1" stop-color="#5521FA"/></linearGradient></defs><path fill="url(#gradient_1)" d="M297.303 386.066C310.941 385.757 327.076 385.786 340.665 386.049C330.07 388.259 313.125 384.513 303.076 387.202C309.969 387.917 337.326 386.797 341.176 388.013C328.046 388.435 314.884 387.958 301.763 388.501C310.859 405.816 321.294 423.653 330.816 440.875L399.671 564.525L431.053 620.694C446.465 648.206 454.229 665.79 484.517 680.06L487.513 681.248C517.901 692.712 543.144 678.212 558.933 651.955C555.561 644.933 551.184 637.941 547.393 631.046L517.261 577.27C519.579 578.926 540.646 616.818 542.757 621.255C546.214 616.679 547.109 612.339 550.296 606.997C550.226 606.886 550.156 606.775 550.087 606.665C543.394 593.905 535.453 581.045 528.927 568.264L529.246 567.463C535.051 576.699 541.157 588.665 546.438 598.351L574.37 648.702C565.772 667.373 554.291 681.216 534.504 688.91C521.944 693.794 499.802 694.609 487.457 688.818C486.477 688.537 485.508 688.221 484.551 687.87C458.118 678.105 446.509 654.422 433.769 631.518C426.573 618.746 419.472 605.921 412.467 593.042L361.499 501.328L316.626 420.885C310.627 410.068 302.263 397.044 297.303 386.066Z"/><defs><linearGradient id="gradient_2" gradientUnits="userSpaceOnUse" x1="550.74731" y1="452.99399" x2="687.64862" y2="457.10806"><stop offset="0" stop-color="#302159"/><stop offset="1" stop-color="#8653F2"/></linearGradient></defs><path fill="url(#gradient_2)" d="M643.86 326.834C666.172 331.327 681.756 336.877 694.847 356.229C720.307 393.862 697.555 424.387 678.077 457.521C673.705 464.957 668.798 475.729 663.776 482.569C662.576 485.277 658.94 491.257 657.345 493.983L643.806 516.876C629.364 541.603 613.77 568.28 599.914 593.097C592.14 579.551 585.074 565.726 577.45 552.148C566.986 533.512 555.868 514.732 546.496 495.509C558.85 471.115 576.432 442.562 590.287 418.836C606.314 391.389 622.326 362.74 638.69 335.666L643.86 326.834Z"/><path fill="#BB5FD2" d="M546.496 495.509C558.85 471.115 576.432 442.562 590.287 418.836C606.314 391.389 622.326 362.74 638.69 335.666L640.992 335.79C635.961 346.612 629.246 356.112 623.779 366.494C609.105 390.572 594.41 417.095 580.098 441.604C572.876 453.761 565.777 465.99 558.804 478.291C555.969 483.309 551.719 490.451 549.316 495.555C554.623 504.672 559.317 514.359 564.539 523.494C574.325 540.611 583.633 557.52 592.836 574.955C601.645 560.35 609.667 545.246 618.474 530.63C620.013 528.077 621.556 525.339 622.904 522.68C623.537 522.079 627.792 514.548 628.467 513.384C634.815 502.456 641.097 491.49 647.311 480.486C648.775 477.904 654.893 466.664 656.216 465.305C656.578 465.145 656.94 464.984 657.302 464.824C661.477 457.698 665.465 450.445 669.872 443.459C671.696 448.931 674.311 460.098 672.068 465.897C670.964 468.753 663.598 479.824 663.545 482.324L663.776 482.569C662.576 485.277 658.94 491.257 657.345 493.983L643.806 516.876C629.364 541.603 613.77 568.28 599.914 593.097C592.14 579.551 585.074 565.726 577.45 552.148C566.986 533.512 555.868 514.732 546.496 495.509Z"/><defs><linearGradient id="gradient_3" gradientUnits="userSpaceOnUse" x1="705.45166" y1="391.35919" x2="647.51349" y2="397.36246"><stop offset="0" stop-color="#F183BE"/><stop offset="1" stop-color="#DB6BD1"/></linearGradient></defs><path fill="url(#gradient_3)" d="M643.86 326.834C666.172 331.327 681.756 336.877 694.847 356.229C720.307 393.862 697.555 424.387 678.077 457.521C673.705 464.957 668.798 475.729 663.776 482.569L663.545 482.324C663.598 479.824 670.964 468.753 672.068 465.897C674.311 460.098 671.696 448.931 669.872 443.459C665.465 450.445 661.477 457.698 657.302 464.824C656.94 464.984 656.578 465.145 656.216 465.305C666.311 444.496 682.755 425.881 688.378 402.993C696.806 368.685 672.906 343.514 640.992 335.79L638.69 335.666L643.86 326.834Z"/><defs><linearGradient id="gradient_4" gradientUnits="userSpaceOnUse" x1="453.0687" y1="359.04596" x2="567.99036" y2="355.78568"><stop offset="0" stop-color="#1D153A"/><stop offset="1" stop-color="#7346D3"/></linearGradient></defs><path fill="url(#gradient_4)" d="M291.982 323.81L436.046 324.184L481.518 324.122C487.651 324.118 500.35 323.845 506.153 324.417C518.023 324.403 531.454 324.106 543.189 324.519C558.433 323.939 576.842 324.503 592.202 324.607C582.866 341.111 570.972 363.792 560.866 379.358C552.181 379.509 539.625 379.861 530.95 379.456C526.826 379.891 515.794 379.599 511.108 379.595L472.003 379.542C468.389 373.457 464.214 365.128 460.615 358.758C457.267 352.832 449.366 339.546 447.31 333.848C444.112 334.232 434.851 334.017 431.184 334.008L400.042 333.959C363.543 333.92 326.464 333.535 290.012 334.03C289.625 331.69 288.826 326.965 289.927 324.955C290.327 324.223 290.971 324.216 291.982 323.81Z"/><defs><linearGradient id="gradient_5" gradientUnits="userSpaceOnUse" x1="386.90665" y1="303.98746" x2="399.01117" y2="358.08344"><stop offset="0" stop-color="#100B22"/><stop offset="1" stop-color="#58389D"/></linearGradient></defs><path fill="url(#gradient_5)" d="M291.982 323.81L436.046 324.184L481.518 324.122C487.651 324.118 500.35 323.845 506.153 324.417C502.745 324.607 477.708 324.696 477.404 324.907C482.02 325.006 486.638 325.037 491.255 325C491.295 328.136 491.994 335.581 490.543 337.976L488.349 338.55C486.086 338.845 478.659 338.597 476.012 338.577L452.167 338.487C449.912 335.765 450.301 332.253 446.597 332.076C445.024 332.912 445.45 333.096 444.31 332.819L443.904 333.185C445.006 333.142 446.413 333.09 447.31 333.848C444.112 334.232 434.851 334.017 431.184 334.008L400.042 333.959C363.543 333.92 326.464 333.535 290.012 334.03C289.625 331.69 288.826 326.965 289.927 324.955C290.327 324.223 290.971 324.216 291.982 323.81Z"/><path fill="#522DBE" d="M290.012 334.03C289.625 331.69 288.826 326.965 289.927 324.955C290.327 324.223 290.971 324.216 291.982 323.81C291.962 326.298 291.636 329.817 292.59 331.941L407.657 332.027C414.106 332.045 442.47 331.266 446.597 332.076C445.024 332.912 445.45 333.096 444.31 332.819L443.904 333.185C445.006 333.142 446.413 333.09 447.31 333.848C444.112 334.232 434.851 334.017 431.184 334.008L400.042 333.959C363.543 333.92 326.464 333.535 290.012 334.03Z"/><defs><linearGradient id="gradient_6" gradientUnits="userSpaceOnUse" x1="474.82874" y1="344.54428" x2="589.07617" y2="354.07013"><stop offset="0" stop-color="#5638D1"/><stop offset="1" stop-color="#F377E3"/></linearGradient></defs><path fill="url(#gradient_6)" d="M506.153 324.417C518.023 324.403 531.454 324.106 543.189 324.519C558.433 323.939 576.842 324.503 592.202 324.607C582.866 341.111 570.972 363.792 560.866 379.358C552.181 379.509 539.625 379.861 530.95 379.456C532.911 378.891 541.257 378.884 544.313 378.662C542.278 378.101 534.126 377.928 531.55 377.826C535.788 377.696 540.024 377.542 544.26 377.364L545.26 377.264C547.228 374.914 552.466 365.087 554.251 361.92C558.723 354.048 563.296 346.235 567.97 338.482C557.755 338.608 547.538 338.592 537.323 338.431C529.509 338.949 517.51 338.545 509.203 338.618C503.652 338.248 494.202 338.554 488.349 338.55L490.543 337.976C491.994 335.581 491.295 328.136 491.255 325C486.638 325.037 482.02 325.006 477.404 324.907C477.708 324.696 502.745 324.607 506.153 324.417Z"/><path fill="#7C49D8" d="M446.597 332.076C450.301 332.253 449.912 335.765 452.167 338.487C459.565 351.342 466.745 364.321 473.706 377.417C483.234 377.446 493.981 377.729 503.41 377.434C513.29 377.586 536.128 376.411 544.26 377.364C540.024 377.542 535.788 377.696 531.55 377.826C534.126 377.928 542.278 378.101 544.313 378.662C541.257 378.884 532.911 378.891 530.95 379.456C526.826 379.891 515.794 379.599 511.108 379.595L472.003 379.542C468.389 373.457 464.214 365.128 460.615 358.758C457.267 352.832 449.366 339.546 447.31 333.848C446.413 333.09 445.006 333.142 443.904 333.185L444.31 332.819C445.45 333.096 445.024 332.912 446.597 332.076Z"/></svg>
